<?xml version="1.0" standalone="no"?>
<!DOCTYPE svg PUBLIC "-//W3C//DTD SVG 20010904//EN"
 "http://www.w3.org/TR/2001/REC-SVG-20010904/DTD/svg10.dtd">
<svg version="1.0" xmlns="http://www.w3.org/2000/svg"
 width="24" height="24" viewBox="0 0 40 40">

<g transform="translate(0.000000,180.000000) scale(1.00000,-1.00000)"
fill="#fff" stroke="none">
<path d="M502 5105 c-32 -14 -402 -316 -449 -367 -30 -32 -53 -90 -53 -135 0
-77 27 -110 255 -299 118 -99 230 -185 247 -193 54 -22 141 -10 185 25 35 28
64 72 77 117 5 16 70 17 1186 17 1281 0 1208 -3 1283 54 19 14 47 50 62 78 27
49 30 63 33 179 3 97 0 139 -12 183 -19 66 -69 126 -130 159 l-41 22 -1189 5
-1189 5 -10 30 c-34 105 -157 163 -255 120z m98 -224 c9 -112 -133 -101 1276
-101 l1223 0 28 -24 c27 -24 28 -28 31 -138 4 -112 3 -115 -23 -146 l-27 -32
-1223 0 -1223 0 -31 -25 c-26 -23 -30 -34 -33 -83 -2 -43 -7 -58 -19 -60 -17
-3 -402 312 -407 333 -4 17 388 346 408 342 11 -1 16 -20 20 -66z"/>
<path d="M4498 4260 c-69 -21 -138 -93 -138 -144 0 -14 -110 -16 -1187 -18
l-1188 -3 -54 -30 c-66 -36 -107 -85 -126 -149 -20 -66 -20 -256 0 -322 19
-63 71 -125 132 -155 l48 -24 1188 -3 c1054 -2 1187 -4 1187 -18 0 -8 9 -32
20 -54 42 -83 166 -119 252 -74 20 10 129 97 243 193 221 186 245 214 245 296
0 83 -23 110 -247 298 -115 96 -223 182 -240 191 -40 20 -100 28 -135 16z
m260 -333 c105 -88 192 -165 192 -172 0 -7 -90 -87 -201 -179 -221 -184 -229
-187 -229 -94 0 39 -5 54 -25 73 l-24 25 -1209 0 c-859 0 -1218 3 -1241 11
-48 17 -61 53 -61 164 0 111 13 147 61 164 23 8 383 11 1245 11 l1213 0 20 26
c15 18 21 41 21 73 0 48 15 75 34 64 6 -4 98 -79 204 -166z"/>
<path d="M2195 2980 c-114 -18 -197 -51 -476 -191 l-280 -139 -299 0 c-295 0
-299 0 -305 21 -11 33 -74 98 -119 122 -39 21 -53 22 -316 22 -308 0 -313 -1
-367 -72 l-28 -36 -3 -732 -2 -731 23 -44 c16 -30 37 -51 67 -67 41 -22 52
-23 275 -23 l232 0 129 -54 129 -54 6 -54 c11 -100 70 -183 165 -229 56 -28
75 -32 139 -32 l74 1 26 -54 c33 -67 110 -138 175 -159 31 -10 75 -15 117 -14
l67 2 14 -41 c19 -58 83 -126 150 -159 47 -23 71 -28 137 -29 l80 -1 8 -30
c18 -60 79 -126 151 -163 57 -29 77 -34 134 -34 72 0 137 23 194 67 l31 25 54
-38 c29 -21 77 -44 105 -50 182 -44 365 94 371 278 l1 58 56 16 c100 30 179
120 201 230 l11 55 54 6 c164 17 292 192 257 352 l-9 40 60 33 60 32 621 0
622 0 43 23 c30 16 51 37 67 67 l23 44 -2 731 -3 732 -28 36 c-54 71 -59 72
-367 72 -263 0 -277 -1 -316 -22 -45 -24 -108 -89 -119 -122 -6 -20 -12 -21
-173 -21 l-167 0 -295 145 c-347 171 -397 187 -575 187 -130 0 -229 -19 -332
-66 l-53 -25 -58 26 c-127 56 -310 82 -437 63z m1040 -187 c49 -11 144 -54
315 -141 345 -176 338 -173 551 -180 l176 -5 62 -566 c34 -311 64 -578 67
-593 l6 -28 -289 0 -288 0 -1 73 c0 90 -32 162 -101 228 -47 45 -874 628 -943
665 -25 13 -56 18 -105 18 -121 0 -134 -11 -394 -324 -189 -227 -226 -266
-273 -291 -97 -50 -248 6 -248 92 0 30 -10 15 246 380 257 367 260 370 572
527 130 66 260 127 289 136 112 37 225 40 358 9z m-771 2 c14 -6 -2 -18 -80
-59 -126 -65 -177 -101 -251 -176 -68 -68 -504 -686 -522 -739 -14 -42 -14
-114 -1 -163 15 -53 88 -129 157 -163 75 -37 195 -46 275 -21 99 32 138 69
369 344 127 151 232 267 246 273 14 5 35 7 47 3 25 -8 894 -614 918 -641 24
-26 48 -87 48 -120 0 -62 -66 -123 -133 -123 -13 0 -45 11 -71 25 -26 14 -58
25 -72 25 -35 0 -74 -42 -74 -80 0 -44 13 -63 69 -104 35 -26 54 -49 67 -81
16 -42 16 -48 0 -90 -36 -94 -133 -111 -223 -41 -57 45 -83 52 -120 34 -57
-27 -66 -98 -18 -140 53 -46 65 -128 27 -186 -34 -52 -122 -68 -177 -32 -45
30 -88 26 -119 -11 -34 -40 -33 -70 3 -111 41 -48 51 -71 51 -121 0 -50 -24
-88 -70 -112 -46 -24 -83 -18 -142 21 l-55 36 14 47 c21 66 12 164 -20 227
-26 52 -85 112 -134 138 -39 19 -129 34 -179 29 -40 -5 -41 -4 -58 40 -23 61
-74 117 -137 152 -48 27 -63 30 -141 30 -85 0 -87 1 -93 25 -11 44 -63 116
-107 146 -66 47 -106 59 -188 59 l-76 -1 -23 53 c-45 103 -155 175 -265 176
-116 1 -216 -54 -272 -149 -14 -24 -29 -44 -33 -44 -11 0 -175 71 -184 79 -4
4 22 281 59 614 l68 607 255 0 c371 0 343 -6 691 165 162 79 320 151 350 159
58 16 287 17 324 1z m-1801 -173 c9 -8 17 -29 17 -47 0 -17 -31 -314 -70 -660
-38 -346 -70 -630 -70 -632 0 -2 -83 -3 -185 -3 l-185 0 0 678 c0 373 3 682 8
686 4 4 111 5 237 1 185 -6 233 -10 248 -23z m4285 -659 l2 -683 -185 0 c-102
0 -185 1 -185 3 0 2 -31 286 -70 632 -38 346 -70 643 -70 660 0 56 20 64 165
68 72 1 177 3 235 2 l105 0 3 -682z m-3674 -794 c34 -27 56 -70 56 -111 0 -71
-90 -196 -143 -199 -99 -5 -160 47 -160 136 0 51 60 157 101 180 41 22 114 19
146 -6z m373 -224 c42 -28 65 -75 60 -125 -5 -56 -52 -137 -98 -168 -98 -67
-231 32 -199 148 15 55 71 133 110 153 39 20 88 17 127 -8z m380 -227 c39 -23
63 -70 63 -120 0 -40 -56 -144 -92 -171 -85 -63 -211 3 -211 111 0 61 68 173
117 192 37 15 88 10 123 -12z m374 -223 c40 -21 69 -71 69 -119 0 -50 -60
-156 -103 -181 -91 -54 -203 16 -201 127 2 45 65 152 102 173 36 19 96 19 133
0z"/>
</g>
</svg>
